<?xml version="1.0" encoding="UTF-8" standalone="no"?>
<!DOCTYPE svg PUBLIC "-//W3C//DTD SVG 1.1//EN"
 "http://www.w3.org/Graphics/SVG/1.1/DTD/svg11.dtd">
<!-- Generated by graphviz version 2.47.0 (20210316.0004)
 -->
<!-- Title: dependencies Pages: 1 -->
<svg width="2330pt" height="284pt"
 viewBox="0.00 0.00 2330.00 284.00" xmlns="http://www.w3.org/2000/svg" xmlns:xlink="http://www.w3.org/1999/xlink">
<g id="graph0" class="graph" transform="scale(1 1) rotate(0) translate(4 280)">
<title>dependencies</title>
<polygon fill="white" stroke="transparent" points="-4,4 -4,-280 2326,-280 2326,4 -4,4"/>
<text text-anchor="start" x="1140.01" y="-42.4" font-family="Times-12" font-weight="bold" font-size="14.00">Legend</text>
<polygon fill="#ffffb3" stroke="transparent" points="927,-10 927,-30 947,-30 947,-10 927,-10"/>
<text text-anchor="start" x="950.63" y="-15.4" font-family="Times-12" font-size="14.00"> &#160;Declarations</text>
<polygon fill="#8dd3c7" stroke="transparent" points="1040,-10 1040,-30 1060,-30 1060,-10 1040,-10"/>
<text text-anchor="start" x="1063.73" y="-15.4" font-family="Times-12" font-size="14.00"> &#160;Module</text>
<polygon fill="#80b1d3" stroke="transparent" points="1126,-10 1126,-30 1146,-30 1146,-10 1126,-10"/>
<text text-anchor="start" x="1149.78" y="-15.4" font-family="Times-12" font-size="14.00"> &#160;Bootstrap</text>
<polygon fill="#fdb462" stroke="transparent" points="1223,-10 1223,-30 1243,-30 1243,-10 1223,-10"/>
<text text-anchor="start" x="1246.67" y="-15.4" font-family="Times-12" font-size="14.00"> &#160;Providers</text>
<polygon fill="#fb8072" stroke="transparent" points="1319,-10 1319,-30 1339,-30 1339,-10 1319,-10"/>
<text text-anchor="start" x="1342.73" y="-15.4" font-family="Times-12" font-size="14.00"> &#160;Exports</text>
<g id="clust1" class="cluster">
<title>cluster_SharedModule</title>
<polygon fill="none" stroke="black" stroke-dasharray="1,5" points="8,-70 8,-268 2314,-268 2314,-70 8,-70"/>
</g>
<g id="clust15" class="cluster">
<title>cluster_SharedModule_exports</title>
<polygon fill="none" stroke="black" points="299,-208 299,-260 1997,-260 1997,-208 299,-208"/>
</g>
<g id="clust14" class="cluster">
<title>cluster_SharedModule_imports</title>
<polygon fill="none" stroke="black" points="1842,-78 1842,-130 2306,-130 2306,-78 1842,-78"/>
</g>
<g id="clust2" class="cluster">
<title>cluster_SharedModule_declarations</title>
<polygon fill="none" stroke="black" points="16,-78 16,-130 1834,-130 1834,-78 16,-78"/>
</g>
<!-- AlertDialogComponent -->
<g id="node1" class="node">
<title>AlertDialogComponent</title>
<polygon fill="#ffffb3" stroke="black" points="1826.2,-122 1677.8,-122 1677.8,-86 1826.2,-86 1826.2,-122"/>
<text text-anchor="middle" x="1752" y="-99.8" font-family="Times,serif" font-size="14.00">AlertDialogComponent</text>
</g>
<!-- SharedModule -->
<g id="node12" class="node">
<title>SharedModule</title>
<polygon fill="#8dd3c7" stroke="black" points="1263.42,-187 1260.42,-191 1239.42,-191 1236.42,-187 1164.58,-187 1164.58,-151 1263.42,-151 1263.42,-187"/>
<text text-anchor="middle" x="1214" y="-164.8" font-family="Times,serif" font-size="14.00">SharedModule</text>
</g>
<!-- AlertDialogComponent&#45;&gt;SharedModule -->
<g id="edge1" class="edge">
<title>AlertDialogComponent&#45;&gt;SharedModule</title>
<path fill="none" stroke="black" d="M1748.68,-122.03C1748.68,-138.4 1748.68,-160 1748.68,-160 1748.68,-160 1273.34,-160 1273.34,-160"/>
<polygon fill="black" stroke="black" points="1273.34,-156.5 1263.34,-160 1273.34,-163.5 1273.34,-156.5"/>
</g>
<!-- DineroToCurrencyPipe -->
<g id="node2" class="node">
<title>DineroToCurrencyPipe</title>
<polygon fill="#ffffb3" stroke="black" points="1659.9,-122 1512.1,-122 1512.1,-86 1659.9,-86 1659.9,-122"/>
<text text-anchor="middle" x="1586" y="-99.8" font-family="Times,serif" font-size="14.00">DineroToCurrencyPipe</text>
</g>
<!-- DineroToCurrencyPipe&#45;&gt;SharedModule -->
<g id="edge2" class="edge">
<title>DineroToCurrencyPipe&#45;&gt;SharedModule</title>
<path fill="none" stroke="black" d="M1581.52,-122.24C1581.52,-137.57 1581.52,-157 1581.52,-157 1581.52,-157 1273.57,-157 1273.57,-157"/>
<polygon fill="black" stroke="black" points="1273.57,-153.5 1263.57,-157 1273.57,-160.5 1273.57,-153.5"/>
</g>
<!-- FormatoamdhhFormatodmaPipe -->
<g id="node3" class="node">
<title>FormatoamdhhFormatodmaPipe</title>
<polygon fill="#ffffb3" stroke="black" points="1493.98,-122 1296.02,-122 1296.02,-86 1493.98,-86 1493.98,-122"/>
<text text-anchor="middle" x="1395" y="-99.8" font-family="Times,serif" font-size="14.00">FormatoamdhhFormatodmaPipe</text>
</g>
<!-- FormatoamdhhFormatodmaPipe&#45;&gt;SharedModule -->
<g id="edge3" class="edge">
<title>FormatoamdhhFormatodmaPipe&#45;&gt;SharedModule</title>
<path fill="none" stroke="black" d="M1342.96,-122.05C1342.96,-136.37 1342.96,-154 1342.96,-154 1342.96,-154 1273.49,-154 1273.49,-154"/>
<polygon fill="black" stroke="black" points="1273.49,-150.5 1263.49,-154 1273.49,-157.5 1273.49,-150.5"/>
</g>
<!-- NumberToMxnPipe -->
<g id="node4" class="node">
<title>NumberToMxnPipe</title>
<polygon fill="#ffffb3" stroke="black" points="1278.26,-122 1149.74,-122 1149.74,-86 1278.26,-86 1278.26,-122"/>
<text text-anchor="middle" x="1214" y="-99.8" font-family="Times,serif" font-size="14.00">NumberToMxnPipe</text>
</g>
<!-- NumberToMxnPipe&#45;&gt;SharedModule -->
<g id="edge4" class="edge">
<title>NumberToMxnPipe&#45;&gt;SharedModule</title>
<path fill="none" stroke="black" d="M1214,-122.11C1214,-122.11 1214,-140.99 1214,-140.99"/>
<polygon fill="black" stroke="black" points="1210.5,-140.99 1214,-150.99 1217.5,-140.99 1210.5,-140.99"/>
</g>
<!-- PagoVerdeDirective -->
<g id="node5" class="node">
<title>PagoVerdeDirective</title>
<polygon fill="#ffffb3" stroke="black" points="1131.28,-122 1000.72,-122 1000.72,-86 1131.28,-86 1131.28,-122"/>
<text text-anchor="middle" x="1066" y="-99.8" font-family="Times,serif" font-size="14.00">PagoVerdeDirective</text>
</g>
<!-- PagoVerdeDirective&#45;&gt;SharedModule -->
<g id="edge5" class="edge">
<title>PagoVerdeDirective&#45;&gt;SharedModule</title>
<path fill="none" stroke="black" d="M1086.56,-122.05C1086.56,-136.37 1086.56,-154 1086.56,-154 1086.56,-154 1154.73,-154 1154.73,-154"/>
<polygon fill="black" stroke="black" points="1154.73,-157.5 1164.73,-154 1154.73,-150.5 1154.73,-157.5"/>
</g>
<!-- ShrdSpinnerComponent -->
<g id="node6" class="node">
<title>ShrdSpinnerComponent</title>
<polygon fill="#ffffb3" stroke="black" points="982.82,-122 831.18,-122 831.18,-86 982.82,-86 982.82,-122"/>
<text text-anchor="middle" x="907" y="-99.8" font-family="Times,serif" font-size="14.00">ShrdSpinnerComponent</text>
</g>
<!-- ShrdSpinnerComponent&#45;&gt;SharedModule -->
<g id="edge6" class="edge">
<title>ShrdSpinnerComponent&#45;&gt;SharedModule</title>
<path fill="none" stroke="black" d="M978.62,-122.24C978.62,-137.57 978.62,-157 978.62,-157 978.62,-157 1154.66,-157 1154.66,-157"/>
<polygon fill="black" stroke="black" points="1154.66,-160.5 1164.66,-157 1154.66,-153.5 1154.66,-160.5"/>
</g>
<!-- SideNavComponent -->
<g id="node7" class="node">
<title>SideNavComponent</title>
<polygon fill="#ffffb3" stroke="black" points="813.54,-122 684.46,-122 684.46,-86 813.54,-86 813.54,-122"/>
<text text-anchor="middle" x="749" y="-99.8" font-family="Times,serif" font-size="14.00">SideNavComponent</text>
</g>
<!-- SideNavComponent&#45;&gt;SharedModule -->
<g id="edge7" class="edge">
<title>SideNavComponent&#45;&gt;SharedModule</title>
<path fill="none" stroke="black" d="M809.5,-122.03C809.5,-138.4 809.5,-160 809.5,-160 809.5,-160 1154.4,-160 1154.4,-160"/>
<polygon fill="black" stroke="black" points="1154.4,-163.5 1164.4,-160 1154.4,-156.5 1154.4,-163.5"/>
</g>
<!-- SnackBarComponent -->
<g id="node8" class="node">
<title>SnackBarComponent</title>
<polygon fill="#ffffb3" stroke="black" points="665.76,-122 530.24,-122 530.24,-86 665.76,-86 665.76,-122"/>
<text text-anchor="middle" x="598" y="-99.8" font-family="Times,serif" font-size="14.00">SnackBarComponent</text>
</g>
<!-- SnackBarComponent&#45;&gt;SharedModule -->
<g id="edge8" class="edge">
<title>SnackBarComponent&#45;&gt;SharedModule</title>
<path fill="none" stroke="black" d="M645.32,-122.02C645.32,-139.37 645.32,-163 645.32,-163 645.32,-163 1154.53,-163 1154.53,-163"/>
<polygon fill="black" stroke="black" points="1154.53,-166.5 1164.53,-163 1154.53,-159.5 1154.53,-166.5"/>
</g>
<!-- TablaContraloriaComponent -->
<g id="node9" class="node">
<title>TablaContraloriaComponent</title>
<polygon fill="#ffffb3" stroke="black" points="512.46,-122 335.54,-122 335.54,-86 512.46,-86 512.46,-122"/>
<text text-anchor="middle" x="424" y="-99.8" font-family="Times,serif" font-size="14.00">TablaContraloriaComponent</text>
</g>
<!-- TablaContraloriaComponent&#45;&gt;SharedModule -->
<g id="edge9" class="edge">
<title>TablaContraloriaComponent&#45;&gt;SharedModule</title>
<path fill="none" stroke="black" d="M486.68,-122.3C486.68,-140.27 486.68,-165 486.68,-165 486.68,-165 1154.58,-165 1154.58,-165"/>
<polygon fill="black" stroke="black" points="1154.58,-168.5 1164.58,-165 1154.58,-161.5 1154.58,-168.5"/>
</g>
<!-- TableIESTComponent -->
<g id="node10" class="node">
<title>TableIESTComponent</title>
<polygon fill="#ffffb3" stroke="black" points="317.25,-122 174.75,-122 174.75,-86 317.25,-86 317.25,-122"/>
<text text-anchor="middle" x="246" y="-99.8" font-family="Times,serif" font-size="14.00">TableIESTComponent</text>
</g>
<!-- TableIESTComponent&#45;&gt;SharedModule -->
<g id="edge10" class="edge">
<title>TableIESTComponent&#45;&gt;SharedModule</title>
<path fill="none" stroke="black" d="M312.15,-122.17C312.15,-141.09 312.15,-168 312.15,-168 312.15,-168 1154.55,-168 1154.55,-168"/>
<polygon fill="black" stroke="black" points="1154.55,-171.5 1164.55,-168 1154.55,-164.5 1154.55,-171.5"/>
</g>
<!-- ToastIestComponent -->
<g id="node11" class="node">
<title>ToastIestComponent</title>
<polygon fill="#ffffb3" stroke="black" points="156.15,-122 23.85,-122 23.85,-86 156.15,-86 156.15,-122"/>
<text text-anchor="middle" x="90" y="-99.8" font-family="Times,serif" font-size="14.00">ToastIestComponent</text>
</g>
<!-- ToastIestComponent&#45;&gt;SharedModule -->
<g id="edge11" class="edge">
<title>ToastIestComponent&#45;&gt;SharedModule</title>
<path fill="none" stroke="black" d="M90,-122.31C90,-142.15 90,-171 90,-171 90,-171 1154.62,-171 1154.62,-171"/>
<polygon fill="black" stroke="black" points="1154.62,-174.5 1164.62,-171 1154.62,-167.5 1154.62,-174.5"/>
</g>
<!-- AlertDialogComponent  -->
<g id="node17" class="node">
<title>AlertDialogComponent </title>
<polygon fill="#fb8072" stroke="black" points="1988.7,-252 1837.3,-252 1837.3,-216 1988.7,-216 1988.7,-252"/>
<text text-anchor="middle" x="1913" y="-229.8" font-family="Times,serif" font-size="14.00">AlertDialogComponent </text>
</g>
<!-- SharedModule&#45;&gt;AlertDialogComponent  -->
<g id="edge16" class="edge">
<title>SharedModule&#45;&gt;AlertDialogComponent </title>
<path fill="none" stroke="black" stroke-dasharray="5,2" d="M1263.42,-175C1411.89,-175 1843.8,-175 1843.8,-175 1843.8,-175 1843.8,-205.98 1843.8,-205.98"/>
<polygon fill="black" stroke="black" points="1840.3,-205.98 1843.8,-215.98 1847.3,-205.98 1840.3,-205.98"/>
</g>
<!-- DineroToCurrencyPipe  -->
<g id="node18" class="node">
<title>DineroToCurrencyPipe </title>
<polygon fill="#fb8072" stroke="black" points="1819.4,-252 1668.6,-252 1668.6,-216 1819.4,-216 1819.4,-252"/>
<text text-anchor="middle" x="1744" y="-229.8" font-family="Times,serif" font-size="14.00">DineroToCurrencyPipe </text>
</g>
<!-- SharedModule&#45;&gt;DineroToCurrencyPipe  -->
<g id="edge17" class="edge">
<title>SharedModule&#45;&gt;DineroToCurrencyPipe </title>
<path fill="none" stroke="black" stroke-dasharray="5,2" d="M1263.58,-178C1382.33,-178 1673.23,-178 1673.23,-178 1673.23,-178 1673.23,-205.97 1673.23,-205.97"/>
<polygon fill="black" stroke="black" points="1669.73,-205.97 1673.23,-215.97 1676.73,-205.97 1669.73,-205.97"/>
</g>
<!-- FormatoamdhhFormatodmaPipe  -->
<g id="node19" class="node">
<title>FormatoamdhhFormatodmaPipe </title>
<polygon fill="#fb8072" stroke="black" points="1650.98,-252 1449.02,-252 1449.02,-216 1650.98,-216 1650.98,-252"/>
<text text-anchor="middle" x="1550" y="-229.8" font-family="Times,serif" font-size="14.00">FormatoamdhhFormatodmaPipe </text>
</g>
<!-- SharedModule&#45;&gt;FormatoamdhhFormatodmaPipe  -->
<g id="edge18" class="edge">
<title>SharedModule&#45;&gt;FormatoamdhhFormatodmaPipe </title>
<path fill="none" stroke="black" stroke-dasharray="5,2" d="M1263.37,-181C1338.17,-181 1471.62,-181 1471.62,-181 1471.62,-181 1471.62,-205.76 1471.62,-205.76"/>
<polygon fill="black" stroke="black" points="1468.13,-205.76 1471.62,-215.76 1475.13,-205.76 1468.13,-205.76"/>
</g>
<!-- NumberToMxnPipe  -->
<g id="node20" class="node">
<title>NumberToMxnPipe </title>
<polygon fill="#fb8072" stroke="black" points="1431.26,-252 1298.74,-252 1298.74,-216 1431.26,-216 1431.26,-252"/>
<text text-anchor="middle" x="1365" y="-229.8" font-family="Times,serif" font-size="14.00">NumberToMxnPipe </text>
</g>
<!-- SharedModule&#45;&gt;NumberToMxnPipe  -->
<g id="edge19" class="edge">
<title>SharedModule&#45;&gt;NumberToMxnPipe </title>
<path fill="none" stroke="black" stroke-dasharray="5,2" d="M1263.59,-184C1314.72,-184 1387.04,-184 1387.04,-184 1387.04,-184 1387.04,-205.95 1387.04,-205.95"/>
<polygon fill="black" stroke="black" points="1383.54,-205.95 1387.04,-215.95 1390.54,-205.95 1383.54,-205.95"/>
</g>
<!-- PagoVerdeDirective  -->
<g id="node21" class="node">
<title>PagoVerdeDirective </title>
<polygon fill="#fb8072" stroke="black" points="1280.78,-252 1147.22,-252 1147.22,-216 1280.78,-216 1280.78,-252"/>
<text text-anchor="middle" x="1214" y="-229.8" font-family="Times,serif" font-size="14.00">PagoVerdeDirective </text>
</g>
<!-- SharedModule&#45;&gt;PagoVerdeDirective  -->
<g id="edge20" class="edge">
<title>SharedModule&#45;&gt;PagoVerdeDirective </title>
<path fill="none" stroke="black" stroke-dasharray="5,2" d="M1197.6,-187.11C1197.6,-187.11 1197.6,-205.99 1197.6,-205.99"/>
<polygon fill="black" stroke="black" points="1194.1,-205.99 1197.6,-215.99 1201.1,-205.99 1194.1,-205.99"/>
</g>
<!-- SharedModule&#45;&gt;PagoVerdeDirective  -->
<g id="edge21" class="edge">
<title>SharedModule&#45;&gt;PagoVerdeDirective </title>
<path fill="none" stroke="black" stroke-dasharray="5,2" d="M1230.4,-187.11C1230.4,-187.11 1230.4,-205.99 1230.4,-205.99"/>
<polygon fill="black" stroke="black" points="1226.9,-205.99 1230.4,-215.99 1233.9,-205.99 1226.9,-205.99"/>
</g>
<!-- ShrdSpinnerComponent  -->
<g id="node22" class="node">
<title>ShrdSpinnerComponent </title>
<polygon fill="#fb8072" stroke="black" points="1129.32,-252 974.68,-252 974.68,-216 1129.32,-216 1129.32,-252"/>
<text text-anchor="middle" x="1052" y="-229.8" font-family="Times,serif" font-size="14.00">ShrdSpinnerComponent </text>
</g>
<!-- SharedModule&#45;&gt;ShrdSpinnerComponent  -->
<g id="edge22" class="edge">
<title>SharedModule&#45;&gt;ShrdSpinnerComponent </title>
<path fill="none" stroke="black" stroke-dasharray="5,2" d="M1164.75,-185C1114.45,-185 1043.71,-185 1043.71,-185 1043.71,-185 1043.71,-205.75 1043.71,-205.75"/>
<polygon fill="black" stroke="black" points="1040.21,-205.75 1043.71,-215.75 1047.21,-205.75 1040.21,-205.75"/>
</g>
<!-- SideNavComponent  -->
<g id="node23" class="node">
<title>SideNavComponent </title>
<polygon fill="#fb8072" stroke="black" points="956.54,-252 823.46,-252 823.46,-216 956.54,-216 956.54,-252"/>
<text text-anchor="middle" x="890" y="-229.8" font-family="Times,serif" font-size="14.00">SideNavComponent </text>
</g>
<!-- SharedModule&#45;&gt;SideNavComponent  -->
<g id="edge23" class="edge">
<title>SharedModule&#45;&gt;SideNavComponent </title>
<path fill="none" stroke="black" stroke-dasharray="5,2" d="M1164.69,-182C1074.91,-182 893.93,-182 893.93,-182 893.93,-182 893.93,-205.81 893.93,-205.81"/>
<polygon fill="black" stroke="black" points="890.43,-205.81 893.93,-215.81 897.43,-205.81 890.43,-205.81"/>
</g>
<!-- TablaContraloriaComponent  -->
<g id="node24" class="node">
<title>TablaContraloriaComponent </title>
<polygon fill="#fb8072" stroke="black" points="805.46,-252 624.54,-252 624.54,-216 805.46,-216 805.46,-252"/>
<text text-anchor="middle" x="715" y="-229.8" font-family="Times,serif" font-size="14.00">TablaContraloriaComponent </text>
</g>
<!-- SharedModule&#45;&gt;TablaContraloriaComponent  -->
<g id="edge24" class="edge">
<title>SharedModule&#45;&gt;TablaContraloriaComponent </title>
<path fill="none" stroke="black" stroke-dasharray="5,2" d="M1164.67,-179C1044.18,-179 744.73,-179 744.73,-179 744.73,-179 744.73,-205.99 744.73,-205.99"/>
<polygon fill="black" stroke="black" points="741.23,-205.99 744.73,-215.99 748.23,-205.99 741.23,-205.99"/>
</g>
<!-- TableIESTComponent  -->
<g id="node25" class="node">
<title>TableIESTComponent </title>
<polygon fill="#fb8072" stroke="black" points="607.25,-252 460.75,-252 460.75,-216 607.25,-216 607.25,-252"/>
<text text-anchor="middle" x="534" y="-229.8" font-family="Times,serif" font-size="14.00">TableIESTComponent </text>
</g>
<!-- SharedModule&#45;&gt;TableIESTComponent  -->
<g id="edge25" class="edge">
<title>SharedModule&#45;&gt;TableIESTComponent </title>
<path fill="none" stroke="black" stroke-dasharray="5,2" d="M1164.7,-176C1013.83,-176 568.62,-176 568.62,-176 568.62,-176 568.62,-205.97 568.62,-205.97"/>
<polygon fill="black" stroke="black" points="565.12,-205.97 568.62,-215.97 572.12,-205.97 565.12,-205.97"/>
</g>
<!-- ToastIestComponent  -->
<g id="node26" class="node">
<title>ToastIestComponent </title>
<polygon fill="#fb8072" stroke="black" points="443.15,-252 306.85,-252 306.85,-216 443.15,-216 443.15,-252"/>
<text text-anchor="middle" x="375" y="-229.8" font-family="Times,serif" font-size="14.00">ToastIestComponent </text>
</g>
<!-- SharedModule&#45;&gt;ToastIestComponent  -->
<g id="edge26" class="edge">
<title>SharedModule&#45;&gt;ToastIestComponent </title>
<path fill="none" stroke="black" stroke-dasharray="5,2" d="M1164.57,-174C986.65,-174 389.3,-174 389.3,-174 389.3,-174 389.3,-206 389.3,-206"/>
<polygon fill="black" stroke="black" points="385.8,-206 389.3,-216 392.8,-206 385.8,-206"/>
</g>
<!-- MaterialModule -->
<g id="node13" class="node">
<title>MaterialModule</title>
<polygon fill="#8dd3c7" stroke="black" points="2298.47,-122 2295.47,-126 2274.47,-126 2271.47,-122 2191.53,-122 2191.53,-86 2298.47,-86 2298.47,-122"/>
<text text-anchor="middle" x="2245" y="-99.8" font-family="Times,serif" font-size="14.00">MaterialModule</text>
</g>
<!-- MaterialModule&#45;&gt;SharedModule -->
<g id="edge12" class="edge">
<title>MaterialModule&#45;&gt;SharedModule</title>
<path fill="none" stroke="black" d="M2245,-122.22C2245,-142.37 2245,-172 2245,-172 2245,-172 1273.38,-172 1273.38,-172"/>
<polygon fill="black" stroke="black" points="1273.38,-168.5 1263.38,-172 1273.38,-175.5 1273.38,-168.5"/>
</g>
<!-- RouterLink -->
<g id="node14" class="node">
<title>RouterLink</title>
<polygon fill="#8dd3c7" stroke="black" points="2173.05,-122 2170.05,-126 2149.05,-126 2146.05,-122 2092.95,-122 2092.95,-86 2173.05,-86 2173.05,-122"/>
<text text-anchor="middle" x="2133" y="-99.8" font-family="Times,serif" font-size="14.00">RouterLink</text>
</g>
<!-- RouterLink&#45;&gt;SharedModule -->
<g id="edge13" class="edge">
<title>RouterLink&#45;&gt;SharedModule</title>
<path fill="none" stroke="black" d="M2133,-122.11C2133,-141.34 2133,-169 2133,-169 2133,-169 1273.41,-169 1273.41,-169"/>
<polygon fill="black" stroke="black" points="1273.41,-165.5 1263.41,-169 1273.41,-172.5 1273.41,-165.5"/>
</g>
<!-- RouterLinkActive -->
<g id="node15" class="node">
<title>RouterLinkActive</title>
<polygon fill="#8dd3c7" stroke="black" points="2074.86,-122 2071.86,-126 2050.86,-126 2047.86,-122 1957.14,-122 1957.14,-86 2074.86,-86 2074.86,-122"/>
<text text-anchor="middle" x="2016" y="-99.8" font-family="Times,serif" font-size="14.00">RouterLinkActive</text>
</g>
<!-- RouterLinkActive&#45;&gt;SharedModule -->
<g id="edge14" class="edge">
<title>RouterLinkActive&#45;&gt;SharedModule</title>
<path fill="none" stroke="black" d="M1972.96,-122.27C1972.96,-140.56 1972.96,-166 1972.96,-166 1972.96,-166 1273.21,-166 1273.21,-166"/>
<polygon fill="black" stroke="black" points="1273.21,-162.5 1263.21,-166 1273.21,-169.5 1273.21,-162.5"/>
</g>
<!-- RouterOutlet -->
<g id="node16" class="node">
<title>RouterOutlet</title>
<polygon fill="#8dd3c7" stroke="black" points="1939.6,-122 1936.6,-126 1915.6,-126 1912.6,-122 1850.4,-122 1850.4,-86 1939.6,-86 1939.6,-122"/>
<text text-anchor="middle" x="1895" y="-99.8" font-family="Times,serif" font-size="14.00">RouterOutlet</text>
</g>
<!-- RouterOutlet&#45;&gt;SharedModule -->
<g id="edge15" class="edge">
<title>RouterOutlet&#45;&gt;SharedModule</title>
<path fill="none" stroke="black" d="M1895,-122.02C1895,-139.37 1895,-163 1895,-163 1895,-163 1273.25,-163 1273.25,-163"/>
<polygon fill="black" stroke="black" points="1273.25,-159.5 1263.25,-163 1273.25,-166.5 1273.25,-159.5"/>
</g>
</g>
</svg>
