<?xml version="1.0" encoding="UTF-8" standalone="no"?>
<!DOCTYPE svg PUBLIC "-//W3C//DTD SVG 1.1//EN"
 "http://www.w3.org/Graphics/SVG/1.1/DTD/svg11.dtd">
<!-- Generated by graphviz version 2.47.0 (20210316.0004)
 -->
<!-- Title: dependencies Pages: 1 -->
<svg width="630pt" height="211pt"
 viewBox="0.00 0.00 630.00 211.00" xmlns="http://www.w3.org/2000/svg" xmlns:xlink="http://www.w3.org/1999/xlink">
<g id="graph0" class="graph" transform="scale(1 1) rotate(0) translate(4 207)">
<title>dependencies</title>
<polygon fill="white" stroke="transparent" points="-4,4 -4,-207 626,-207 626,4 -4,4"/>
<text text-anchor="start" x="290.01" y="-42.4" font-family="Times-12" font-weight="bold" font-size="14.00">Legend</text>
<polygon fill="#ffffb3" stroke="transparent" points="77,-10 77,-30 97,-30 97,-10 77,-10"/>
<text text-anchor="start" x="100.63" y="-15.4" font-family="Times-12" font-size="14.00"> &#160;Declarations</text>
<polygon fill="#8dd3c7" stroke="transparent" points="190,-10 190,-30 210,-30 210,-10 190,-10"/>
<text text-anchor="start" x="213.73" y="-15.4" font-family="Times-12" font-size="14.00"> &#160;Module</text>
<polygon fill="#80b1d3" stroke="transparent" points="276,-10 276,-30 296,-30 296,-10 276,-10"/>
<text text-anchor="start" x="299.78" y="-15.4" font-family="Times-12" font-size="14.00"> &#160;Bootstrap</text>
<polygon fill="#fdb462" stroke="transparent" points="373,-10 373,-30 393,-30 393,-10 373,-10"/>
<text text-anchor="start" x="396.67" y="-15.4" font-family="Times-12" font-size="14.00"> &#160;Providers</text>
<polygon fill="#fb8072" stroke="transparent" points="469,-10 469,-30 489,-30 489,-10 469,-10"/>
<text text-anchor="start" x="492.73" y="-15.4" font-family="Times-12" font-size="14.00"> &#160;Exports</text>
<g id="clust1" class="cluster">
<title>cluster_ShirtSaleModule</title>
<polygon fill="none" stroke="black" stroke-dasharray="1,5" points="8,-70 8,-195 614,-195 614,-70 8,-70"/>
</g>
<g id="clust3" class="cluster">
<title>cluster_ShirtSaleModule_imports</title>
<polygon fill="none" stroke="black" points="16,-78 16,-130 606,-130 606,-78 16,-78"/>
</g>
<!-- MaterialModule -->
<g id="node1" class="node">
<title>MaterialModule</title>
<polygon fill="#8dd3c7" stroke="black" points="598.47,-122 595.47,-126 574.47,-126 571.47,-122 491.53,-122 491.53,-86 598.47,-86 598.47,-122"/>
<text text-anchor="middle" x="545" y="-99.8" font-family="Times,serif" font-size="14.00">MaterialModule</text>
</g>
<!-- ShirtSaleModule -->
<g id="node6" class="node">
<title>ShirtSaleModule</title>
<polygon fill="#8dd3c7" stroke="black" points="343.38,-187 340.38,-191 319.38,-191 316.38,-187 232.62,-187 232.62,-151 343.38,-151 343.38,-187"/>
<text text-anchor="middle" x="288" y="-164.8" font-family="Times,serif" font-size="14.00">ShirtSaleModule</text>
</g>
<!-- MaterialModule&#45;&gt;ShirtSaleModule -->
<g id="edge1" class="edge">
<title>MaterialModule&#45;&gt;ShirtSaleModule</title>
<path fill="none" stroke="black" d="M545,-122.11C545,-141.34 545,-169 545,-169 545,-169 353.45,-169 353.45,-169"/>
<polygon fill="black" stroke="black" points="353.45,-165.5 343.45,-169 353.45,-172.5 353.45,-165.5"/>
</g>
<!-- NgOptimizedImage -->
<g id="node2" class="node">
<title>NgOptimizedImage</title>
<polygon fill="#8dd3c7" stroke="black" points="473.69,-122 470.69,-126 449.69,-126 446.69,-122 346.31,-122 346.31,-86 473.69,-86 473.69,-122"/>
<text text-anchor="middle" x="410" y="-99.8" font-family="Times,serif" font-size="14.00">NgOptimizedImage</text>
</g>
<!-- NgOptimizedImage&#45;&gt;ShirtSaleModule -->
<g id="edge2" class="edge">
<title>NgOptimizedImage&#45;&gt;ShirtSaleModule</title>
<path fill="none" stroke="black" d="M346.17,-104C339.93,-104 335.86,-104 335.86,-104 335.86,-104 335.86,-140.89 335.86,-140.89"/>
<polygon fill="black" stroke="black" points="332.36,-140.89 335.86,-150.89 339.36,-140.89 332.36,-140.89"/>
</g>
<!-- RouterLink -->
<g id="node3" class="node">
<title>RouterLink</title>
<polygon fill="#8dd3c7" stroke="black" points="328.05,-122 325.05,-126 304.05,-126 301.05,-122 247.95,-122 247.95,-86 328.05,-86 328.05,-122"/>
<text text-anchor="middle" x="288" y="-99.8" font-family="Times,serif" font-size="14.00">RouterLink</text>
</g>
<!-- RouterLink&#45;&gt;ShirtSaleModule -->
<g id="edge3" class="edge">
<title>RouterLink&#45;&gt;ShirtSaleModule</title>
<path fill="none" stroke="black" d="M288,-122.11C288,-122.11 288,-140.99 288,-140.99"/>
<polygon fill="black" stroke="black" points="284.5,-140.99 288,-150.99 291.5,-140.99 284.5,-140.99"/>
</g>
<!-- RouterOutlet -->
<g id="node4" class="node">
<title>RouterOutlet</title>
<polygon fill="#8dd3c7" stroke="black" points="229.6,-122 226.6,-126 205.6,-126 202.6,-122 140.4,-122 140.4,-86 229.6,-86 229.6,-122"/>
<text text-anchor="middle" x="185" y="-99.8" font-family="Times,serif" font-size="14.00">RouterOutlet</text>
</g>
<!-- RouterOutlet&#45;&gt;ShirtSaleModule -->
<g id="edge4" class="edge">
<title>RouterOutlet&#45;&gt;ShirtSaleModule</title>
<path fill="none" stroke="black" d="M229.77,-104C235.9,-104 240.14,-104 240.14,-104 240.14,-104 240.14,-140.89 240.14,-140.89"/>
<polygon fill="black" stroke="black" points="236.64,-140.89 240.14,-150.89 243.64,-140.89 236.64,-140.89"/>
</g>
<!-- SharedModule -->
<g id="node5" class="node">
<title>SharedModule</title>
<polygon fill="#8dd3c7" stroke="black" points="122.42,-122 119.42,-126 98.42,-126 95.42,-122 23.58,-122 23.58,-86 122.42,-86 122.42,-122"/>
<text text-anchor="middle" x="73" y="-99.8" font-family="Times,serif" font-size="14.00">SharedModule</text>
</g>
<!-- SharedModule&#45;&gt;ShirtSaleModule -->
<g id="edge5" class="edge">
<title>SharedModule&#45;&gt;ShirtSaleModule</title>
<path fill="none" stroke="black" d="M73,-122.11C73,-141.34 73,-169 73,-169 73,-169 222.35,-169 222.35,-169"/>
<polygon fill="black" stroke="black" points="222.35,-172.5 232.35,-169 222.35,-165.5 222.35,-172.5"/>
</g>
</g>
</svg>
