<?xml version="1.0" encoding="UTF-8" standalone="no"?>
<!DOCTYPE svg PUBLIC "-//W3C//DTD SVG 1.1//EN"
 "http://www.w3.org/Graphics/SVG/1.1/DTD/svg11.dtd">
<!-- Generated by graphviz version 2.47.0 (20210316.0004)
 -->
<!-- Title: dependencies Pages: 1 -->
<svg width="1177pt" height="211pt"
 viewBox="0.00 0.00 1177.00 211.00" xmlns="http://www.w3.org/2000/svg" xmlns:xlink="http://www.w3.org/1999/xlink">
<g id="graph0" class="graph" transform="scale(1 1) rotate(0) translate(4 207)">
<title>dependencies</title>
<polygon fill="white" stroke="transparent" points="-4,4 -4,-207 1173,-207 1173,4 -4,4"/>
<text text-anchor="start" x="563.51" y="-42.4" font-family="Times-12" font-weight="bold" font-size="14.00">Legend</text>
<polygon fill="#ffffb3" stroke="transparent" points="350.5,-10 350.5,-30 370.5,-30 370.5,-10 350.5,-10"/>
<text text-anchor="start" x="374.13" y="-15.4" font-family="Times-12" font-size="14.00"> &#160;Declarations</text>
<polygon fill="#8dd3c7" stroke="transparent" points="463.5,-10 463.5,-30 483.5,-30 483.5,-10 463.5,-10"/>
<text text-anchor="start" x="487.23" y="-15.4" font-family="Times-12" font-size="14.00"> &#160;Module</text>
<polygon fill="#80b1d3" stroke="transparent" points="549.5,-10 549.5,-30 569.5,-30 569.5,-10 549.5,-10"/>
<text text-anchor="start" x="573.28" y="-15.4" font-family="Times-12" font-size="14.00"> &#160;Bootstrap</text>
<polygon fill="#fdb462" stroke="transparent" points="646.5,-10 646.5,-30 666.5,-30 666.5,-10 646.5,-10"/>
<text text-anchor="start" x="670.17" y="-15.4" font-family="Times-12" font-size="14.00"> &#160;Providers</text>
<polygon fill="#fb8072" stroke="transparent" points="742.5,-10 742.5,-30 762.5,-30 762.5,-10 742.5,-10"/>
<text text-anchor="start" x="766.23" y="-15.4" font-family="Times-12" font-size="14.00"> &#160;Exports</text>
<g id="clust1" class="cluster">
<title>cluster_PagaresModule</title>
<polygon fill="none" stroke="black" stroke-dasharray="1,5" points="8,-70 8,-195 1161,-195 1161,-70 8,-70"/>
</g>
<g id="clust2" class="cluster">
<title>cluster_PagaresModule_declarations</title>
<polygon fill="none" stroke="black" points="710,-78 710,-130 1153,-130 1153,-78 710,-78"/>
</g>
<g id="clust5" class="cluster">
<title>cluster_PagaresModule_imports</title>
<polygon fill="none" stroke="black" points="16,-78 16,-130 702,-130 702,-78 16,-78"/>
</g>
<!-- ConfiguracionGeneracionComponent -->
<g id="node1" class="node">
<title>ConfiguracionGeneracionComponent</title>
<polygon fill="#ffffb3" stroke="black" points="1145.22,-122 918.78,-122 918.78,-86 1145.22,-86 1145.22,-122"/>
<text text-anchor="middle" x="1032" y="-99.8" font-family="Times,serif" font-size="14.00">ConfiguracionGeneracionComponent</text>
</g>
<!-- PagaresModule -->
<g id="node3" class="node">
<title>PagaresModule</title>
<polygon fill="#8dd3c7" stroke="black" points="580.58,-187 577.58,-191 556.58,-191 553.58,-187 477.42,-187 477.42,-151 580.58,-151 580.58,-187"/>
<text text-anchor="middle" x="529" y="-164.8" font-family="Times,serif" font-size="14.00">PagaresModule</text>
</g>
<!-- ConfiguracionGeneracionComponent&#45;&gt;PagaresModule -->
<g id="edge1" class="edge">
<title>ConfiguracionGeneracionComponent&#45;&gt;PagaresModule</title>
<path fill="none" stroke="black" d="M1032,-122.28C1032,-143.32 1032,-175 1032,-175 1032,-175 590.94,-175 590.94,-175"/>
<polygon fill="black" stroke="black" points="590.94,-171.5 580.94,-175 590.94,-178.5 590.94,-171.5"/>
</g>
<!-- GeneradorMasivoComponent -->
<g id="node2" class="node">
<title>GeneradorMasivoComponent</title>
<polygon fill="#ffffb3" stroke="black" points="900.4,-122 717.6,-122 717.6,-86 900.4,-86 900.4,-122"/>
<text text-anchor="middle" x="809" y="-99.8" font-family="Times,serif" font-size="14.00">GeneradorMasivoComponent</text>
</g>
<!-- GeneradorMasivoComponent&#45;&gt;PagaresModule -->
<g id="edge2" class="edge">
<title>GeneradorMasivoComponent&#45;&gt;PagaresModule</title>
<path fill="none" stroke="black" d="M809,-122.02C809,-139.37 809,-163 809,-163 809,-163 590.68,-163 590.68,-163"/>
<polygon fill="black" stroke="black" points="590.68,-159.5 580.68,-163 590.68,-166.5 590.68,-159.5"/>
</g>
<!-- MaterialModule -->
<g id="node4" class="node">
<title>MaterialModule</title>
<polygon fill="#8dd3c7" stroke="black" points="694.47,-122 691.47,-126 670.47,-126 667.47,-122 587.53,-122 587.53,-86 694.47,-86 694.47,-122"/>
<text text-anchor="middle" x="641" y="-99.8" font-family="Times,serif" font-size="14.00">MaterialModule</text>
</g>
<!-- MaterialModule&#45;&gt;PagaresModule -->
<g id="edge3" class="edge">
<title>MaterialModule&#45;&gt;PagaresModule</title>
<path fill="none" stroke="black" d="M587.34,-104C579.99,-104 574.91,-104 574.91,-104 574.91,-104 574.91,-140.89 574.91,-140.89"/>
<polygon fill="black" stroke="black" points="571.41,-140.89 574.91,-150.89 578.41,-140.89 571.41,-140.89"/>
</g>
<!-- RouterLink -->
<g id="node5" class="node">
<title>RouterLink</title>
<polygon fill="#8dd3c7" stroke="black" points="569.05,-122 566.05,-126 545.05,-126 542.05,-122 488.95,-122 488.95,-86 569.05,-86 569.05,-122"/>
<text text-anchor="middle" x="529" y="-99.8" font-family="Times,serif" font-size="14.00">RouterLink</text>
</g>
<!-- RouterLink&#45;&gt;PagaresModule -->
<g id="edge4" class="edge">
<title>RouterLink&#45;&gt;PagaresModule</title>
<path fill="none" stroke="black" d="M529,-122.11C529,-122.11 529,-140.99 529,-140.99"/>
<polygon fill="black" stroke="black" points="525.5,-140.99 529,-150.99 532.5,-140.99 525.5,-140.99"/>
</g>
<!-- RouterOutlet -->
<g id="node6" class="node">
<title>RouterOutlet</title>
<polygon fill="#8dd3c7" stroke="black" points="470.6,-122 467.6,-126 446.6,-126 443.6,-122 381.4,-122 381.4,-86 470.6,-86 470.6,-122"/>
<text text-anchor="middle" x="426" y="-99.8" font-family="Times,serif" font-size="14.00">RouterOutlet</text>
</g>
<!-- RouterOutlet&#45;&gt;PagaresModule -->
<g id="edge5" class="edge">
<title>RouterOutlet&#45;&gt;PagaresModule</title>
<path fill="none" stroke="black" d="M470.7,-104C477.93,-104 483.09,-104 483.09,-104 483.09,-104 483.09,-140.89 483.09,-140.89"/>
<polygon fill="black" stroke="black" points="479.59,-140.89 483.09,-150.89 486.59,-140.89 479.59,-140.89"/>
</g>
<!-- SelectPagaresGeneracionComponent -->
<g id="node7" class="node">
<title>SelectPagaresGeneracionComponent</title>
<polygon fill="#8dd3c7" stroke="black" points="363.59,-122 360.59,-126 339.59,-126 336.59,-122 140.41,-122 140.41,-86 363.59,-86 363.59,-122"/>
<text text-anchor="middle" x="252" y="-99.8" font-family="Times,serif" font-size="14.00">SelectPagaresGeneracionComponent</text>
</g>
<!-- SelectPagaresGeneracionComponent&#45;&gt;PagaresModule -->
<g id="edge6" class="edge">
<title>SelectPagaresGeneracionComponent&#45;&gt;PagaresModule</title>
<path fill="none" stroke="black" d="M252,-122.02C252,-139.37 252,-163 252,-163 252,-163 467.22,-163 467.22,-163"/>
<polygon fill="black" stroke="black" points="467.22,-166.5 477.22,-163 467.22,-159.5 467.22,-166.5"/>
</g>
<!-- SharedModule -->
<g id="node8" class="node">
<title>SharedModule</title>
<polygon fill="#8dd3c7" stroke="black" points="122.42,-122 119.42,-126 98.42,-126 95.42,-122 23.58,-122 23.58,-86 122.42,-86 122.42,-122"/>
<text text-anchor="middle" x="73" y="-99.8" font-family="Times,serif" font-size="14.00">SharedModule</text>
</g>
<!-- SharedModule&#45;&gt;PagaresModule -->
<g id="edge7" class="edge">
<title>SharedModule&#45;&gt;PagaresModule</title>
<path fill="none" stroke="black" d="M73,-122.28C73,-143.32 73,-175 73,-175 73,-175 467.13,-175 467.13,-175"/>
<polygon fill="black" stroke="black" points="467.13,-178.5 477.13,-175 467.13,-171.5 467.13,-178.5"/>
</g>
</g>
</svg>
