<?xml version="1.0" encoding="UTF-8" standalone="no"?>
<!DOCTYPE svg PUBLIC "-//W3C//DTD SVG 1.1//EN"
 "http://www.w3.org/Graphics/SVG/1.1/DTD/svg11.dtd">
<!-- Generated by graphviz version 2.47.0 (20210316.0004)
 -->
<!-- Title: dependencies Pages: 1 -->
<svg width="667pt" height="211pt"
 viewBox="0.00 0.00 667.00 211.00" xmlns="http://www.w3.org/2000/svg" xmlns:xlink="http://www.w3.org/1999/xlink">
<g id="graph0" class="graph" transform="scale(1 1) rotate(0) translate(4 207)">
<title>dependencies</title>
<polygon fill="white" stroke="transparent" points="-4,4 -4,-207 663,-207 663,4 -4,4"/>
<text text-anchor="start" x="308.51" y="-42.4" font-family="Times-12" font-weight="bold" font-size="14.00">Legend</text>
<polygon fill="#ffffb3" stroke="transparent" points="95.5,-10 95.5,-30 115.5,-30 115.5,-10 95.5,-10"/>
<text text-anchor="start" x="119.13" y="-15.4" font-family="Times-12" font-size="14.00"> &#160;Declarations</text>
<polygon fill="#8dd3c7" stroke="transparent" points="208.5,-10 208.5,-30 228.5,-30 228.5,-10 208.5,-10"/>
<text text-anchor="start" x="232.23" y="-15.4" font-family="Times-12" font-size="14.00"> &#160;Module</text>
<polygon fill="#80b1d3" stroke="transparent" points="294.5,-10 294.5,-30 314.5,-30 314.5,-10 294.5,-10"/>
<text text-anchor="start" x="318.28" y="-15.4" font-family="Times-12" font-size="14.00"> &#160;Bootstrap</text>
<polygon fill="#fdb462" stroke="transparent" points="391.5,-10 391.5,-30 411.5,-30 411.5,-10 391.5,-10"/>
<text text-anchor="start" x="415.17" y="-15.4" font-family="Times-12" font-size="14.00"> &#160;Providers</text>
<polygon fill="#fb8072" stroke="transparent" points="487.5,-10 487.5,-30 507.5,-30 507.5,-10 487.5,-10"/>
<text text-anchor="start" x="511.23" y="-15.4" font-family="Times-12" font-size="14.00"> &#160;Exports</text>
<g id="clust1" class="cluster">
<title>cluster_GrupoConcursoMaestroModule</title>
<polygon fill="none" stroke="black" stroke-dasharray="1,5" points="8,-70 8,-195 651,-195 651,-70 8,-70"/>
</g>
<g id="clust2" class="cluster">
<title>cluster_GrupoConcursoMaestroModule_declarations</title>
<polygon fill="none" stroke="black" points="469,-78 469,-130 643,-130 643,-78 469,-78"/>
</g>
<g id="clust4" class="cluster">
<title>cluster_GrupoConcursoMaestroModule_imports</title>
<polygon fill="none" stroke="black" points="16,-78 16,-130 461,-130 461,-78 16,-78"/>
</g>
<!-- PageConsultaComponent -->
<g id="node1" class="node">
<title>PageConsultaComponent</title>
<polygon fill="#ffffb3" stroke="black" points="635.32,-122 476.68,-122 476.68,-86 635.32,-86 635.32,-122"/>
<text text-anchor="middle" x="556" y="-99.8" font-family="Times,serif" font-size="14.00">PageConsultaComponent</text>
</g>
<!-- GrupoConcursoMaestroModule -->
<g id="node2" class="node">
<title>GrupoConcursoMaestroModule</title>
<polygon fill="#8dd3c7" stroke="black" points="385.34,-187 382.34,-191 361.34,-191 358.34,-187 190.66,-187 190.66,-151 385.34,-151 385.34,-187"/>
<text text-anchor="middle" x="288" y="-164.8" font-family="Times,serif" font-size="14.00">GrupoConcursoMaestroModule</text>
</g>
<!-- PageConsultaComponent&#45;&gt;GrupoConcursoMaestroModule -->
<g id="edge1" class="edge">
<title>PageConsultaComponent&#45;&gt;GrupoConcursoMaestroModule</title>
<path fill="none" stroke="black" d="M556,-122.11C556,-141.34 556,-169 556,-169 556,-169 395.51,-169 395.51,-169"/>
<polygon fill="black" stroke="black" points="395.51,-165.5 385.51,-169 395.51,-172.5 395.51,-165.5"/>
</g>
<!-- MaterialModule -->
<g id="node3" class="node">
<title>MaterialModule</title>
<polygon fill="#8dd3c7" stroke="black" points="453.47,-122 450.47,-126 429.47,-126 426.47,-122 346.53,-122 346.53,-86 453.47,-86 453.47,-122"/>
<text text-anchor="middle" x="400" y="-99.8" font-family="Times,serif" font-size="14.00">MaterialModule</text>
</g>
<!-- MaterialModule&#45;&gt;GrupoConcursoMaestroModule -->
<g id="edge2" class="edge">
<title>MaterialModule&#45;&gt;GrupoConcursoMaestroModule</title>
<path fill="none" stroke="black" d="M365.97,-122.11C365.97,-122.11 365.97,-140.99 365.97,-140.99"/>
<polygon fill="black" stroke="black" points="362.47,-140.99 365.97,-150.99 369.47,-140.99 362.47,-140.99"/>
</g>
<!-- RouterLink -->
<g id="node4" class="node">
<title>RouterLink</title>
<polygon fill="#8dd3c7" stroke="black" points="328.05,-122 325.05,-126 304.05,-126 301.05,-122 247.95,-122 247.95,-86 328.05,-86 328.05,-122"/>
<text text-anchor="middle" x="288" y="-99.8" font-family="Times,serif" font-size="14.00">RouterLink</text>
</g>
<!-- RouterLink&#45;&gt;GrupoConcursoMaestroModule -->
<g id="edge3" class="edge">
<title>RouterLink&#45;&gt;GrupoConcursoMaestroModule</title>
<path fill="none" stroke="black" d="M288,-122.11C288,-122.11 288,-140.99 288,-140.99"/>
<polygon fill="black" stroke="black" points="284.5,-140.99 288,-150.99 291.5,-140.99 284.5,-140.99"/>
</g>
<!-- RouterOutlet -->
<g id="node5" class="node">
<title>RouterOutlet</title>
<polygon fill="#8dd3c7" stroke="black" points="229.6,-122 226.6,-126 205.6,-126 202.6,-122 140.4,-122 140.4,-86 229.6,-86 229.6,-122"/>
<text text-anchor="middle" x="185" y="-99.8" font-family="Times,serif" font-size="14.00">RouterOutlet</text>
</g>
<!-- RouterOutlet&#45;&gt;GrupoConcursoMaestroModule -->
<g id="edge4" class="edge">
<title>RouterOutlet&#45;&gt;GrupoConcursoMaestroModule</title>
<path fill="none" stroke="black" d="M210.06,-122.11C210.06,-122.11 210.06,-140.99 210.06,-140.99"/>
<polygon fill="black" stroke="black" points="206.56,-140.99 210.06,-150.99 213.56,-140.99 206.56,-140.99"/>
</g>
<!-- SharedModule -->
<g id="node6" class="node">
<title>SharedModule</title>
<polygon fill="#8dd3c7" stroke="black" points="122.42,-122 119.42,-126 98.42,-126 95.42,-122 23.58,-122 23.58,-86 122.42,-86 122.42,-122"/>
<text text-anchor="middle" x="73" y="-99.8" font-family="Times,serif" font-size="14.00">SharedModule</text>
</g>
<!-- SharedModule&#45;&gt;GrupoConcursoMaestroModule -->
<g id="edge5" class="edge">
<title>SharedModule&#45;&gt;GrupoConcursoMaestroModule</title>
<path fill="none" stroke="black" d="M73,-122.11C73,-141.34 73,-169 73,-169 73,-169 180.57,-169 180.57,-169"/>
<polygon fill="black" stroke="black" points="180.57,-172.5 190.57,-169 180.56,-165.5 180.57,-172.5"/>
</g>
</g>
</svg>
