<?xml version="1.0" encoding="UTF-8" standalone="no"?>
<!DOCTYPE svg PUBLIC "-//W3C//DTD SVG 1.1//EN"
 "http://www.w3.org/Graphics/SVG/1.1/DTD/svg11.dtd">
<!-- Generated by graphviz version 2.47.0 (20210316.0004)
 -->
<!-- Title: dependencies Pages: 1 -->
<svg width="1283pt" height="211pt"
 viewBox="0.00 0.00 1283.00 211.00" xmlns="http://www.w3.org/2000/svg" xmlns:xlink="http://www.w3.org/1999/xlink">
<g id="graph0" class="graph" transform="scale(1 1) rotate(0) translate(4 207)">
<title>dependencies</title>
<polygon fill="white" stroke="transparent" points="-4,4 -4,-207 1279,-207 1279,4 -4,4"/>
<text text-anchor="start" x="616.51" y="-42.4" font-family="Times-12" font-weight="bold" font-size="14.00">Legend</text>
<polygon fill="#ffffb3" stroke="transparent" points="403.5,-10 403.5,-30 423.5,-30 423.5,-10 403.5,-10"/>
<text text-anchor="start" x="427.13" y="-15.4" font-family="Times-12" font-size="14.00"> &#160;Declarations</text>
<polygon fill="#8dd3c7" stroke="transparent" points="516.5,-10 516.5,-30 536.5,-30 536.5,-10 516.5,-10"/>
<text text-anchor="start" x="540.23" y="-15.4" font-family="Times-12" font-size="14.00"> &#160;Module</text>
<polygon fill="#80b1d3" stroke="transparent" points="602.5,-10 602.5,-30 622.5,-30 622.5,-10 602.5,-10"/>
<text text-anchor="start" x="626.28" y="-15.4" font-family="Times-12" font-size="14.00"> &#160;Bootstrap</text>
<polygon fill="#fdb462" stroke="transparent" points="699.5,-10 699.5,-30 719.5,-30 719.5,-10 699.5,-10"/>
<text text-anchor="start" x="723.17" y="-15.4" font-family="Times-12" font-size="14.00"> &#160;Providers</text>
<polygon fill="#fb8072" stroke="transparent" points="795.5,-10 795.5,-30 815.5,-30 815.5,-10 795.5,-10"/>
<text text-anchor="start" x="819.23" y="-15.4" font-family="Times-12" font-size="14.00"> &#160;Exports</text>
<g id="clust1" class="cluster">
<title>cluster_CampingModule</title>
<polygon fill="none" stroke="black" stroke-dasharray="1,5" points="8,-70 8,-195 1267,-195 1267,-70 8,-70"/>
</g>
<g id="clust2" class="cluster">
<title>cluster_CampingModule_declarations</title>
<polygon fill="none" stroke="black" points="263,-78 263,-130 1259,-130 1259,-78 263,-78"/>
</g>
<g id="clust8" class="cluster">
<title>cluster_CampingModule_imports</title>
<polygon fill="none" stroke="black" points="16,-78 16,-130 255,-130 255,-78 16,-78"/>
</g>
<!-- DialogAnimationsExampleDialog -->
<g id="node1" class="node">
<title>DialogAnimationsExampleDialog</title>
<polygon fill="#ffffb3" stroke="black" points="1250.8,-122 1043.2,-122 1043.2,-86 1250.8,-86 1250.8,-122"/>
<text text-anchor="middle" x="1147" y="-99.8" font-family="Times,serif" font-size="14.00">DialogAnimationsExampleDialog</text>
</g>
<!-- CampingModule -->
<g id="node6" class="node">
<title>CampingModule</title>
<polygon fill="#8dd3c7" stroke="black" points="618.38,-187 615.38,-191 594.38,-191 591.38,-187 507.62,-187 507.62,-151 618.38,-151 618.38,-187"/>
<text text-anchor="middle" x="563" y="-164.8" font-family="Times,serif" font-size="14.00">CampingModule</text>
</g>
<!-- DialogAnimationsExampleDialog&#45;&gt;CampingModule -->
<g id="edge1" class="edge">
<title>DialogAnimationsExampleDialog&#45;&gt;CampingModule</title>
<path fill="none" stroke="black" d="M1147,-122.29C1147,-144.21 1147,-178 1147,-178 1147,-178 628.47,-178 628.47,-178"/>
<polygon fill="black" stroke="black" points="628.47,-174.5 618.47,-178 628.47,-181.5 628.47,-174.5"/>
</g>
<!-- PrecioDependienteComponent -->
<g id="node2" class="node">
<title>PrecioDependienteComponent</title>
<polygon fill="#ffffb3" stroke="black" points="1024.84,-122 837.16,-122 837.16,-86 1024.84,-86 1024.84,-122"/>
<text text-anchor="middle" x="931" y="-99.8" font-family="Times,serif" font-size="14.00">PrecioDependienteComponent</text>
</g>
<!-- PrecioDependienteComponent&#45;&gt;CampingModule -->
<g id="edge2" class="edge">
<title>PrecioDependienteComponent&#45;&gt;CampingModule</title>
<path fill="none" stroke="black" d="M931,-122.11C931,-141.34 931,-169 931,-169 931,-169 628.49,-169 628.49,-169"/>
<polygon fill="black" stroke="black" points="628.49,-165.5 618.49,-169 628.49,-172.5 628.49,-165.5"/>
</g>
<!-- PrecioExternoComponent -->
<g id="node3" class="node">
<title>PrecioExternoComponent</title>
<polygon fill="#ffffb3" stroke="black" points="818.91,-122 657.09,-122 657.09,-86 818.91,-86 818.91,-122"/>
<text text-anchor="middle" x="738" y="-99.8" font-family="Times,serif" font-size="14.00">PrecioExternoComponent</text>
</g>
<!-- PrecioExternoComponent&#45;&gt;CampingModule -->
<g id="edge3" class="edge">
<title>PrecioExternoComponent&#45;&gt;CampingModule</title>
<path fill="none" stroke="black" d="M738,-122.03C738,-138.4 738,-160 738,-160 738,-160 628.85,-160 628.85,-160"/>
<polygon fill="black" stroke="black" points="628.85,-156.5 618.85,-160 628.85,-163.5 628.85,-156.5"/>
</g>
<!-- PreciosExtraComponent -->
<g id="node4" class="node">
<title>PreciosExtraComponent</title>
<polygon fill="#ffffb3" stroke="black" points="639.36,-122 486.64,-122 486.64,-86 639.36,-86 639.36,-122"/>
<text text-anchor="middle" x="563" y="-99.8" font-family="Times,serif" font-size="14.00">PreciosExtraComponent</text>
</g>
<!-- PreciosExtraComponent&#45;&gt;CampingModule -->
<g id="edge4" class="edge">
<title>PreciosExtraComponent&#45;&gt;CampingModule</title>
<path fill="none" stroke="black" d="M563,-122.11C563,-122.11 563,-140.99 563,-140.99"/>
<polygon fill="black" stroke="black" points="559.5,-140.99 563,-150.99 566.5,-140.99 559.5,-140.99"/>
</g>
<!-- VeranoCampamentoComponent -->
<g id="node5" class="node">
<title>VeranoCampamentoComponent</title>
<polygon fill="#ffffb3" stroke="black" points="468.68,-122 271.32,-122 271.32,-86 468.68,-86 468.68,-122"/>
<text text-anchor="middle" x="370" y="-99.8" font-family="Times,serif" font-size="14.00">VeranoCampamentoComponent</text>
</g>
<!-- VeranoCampamentoComponent&#45;&gt;CampingModule -->
<g id="edge5" class="edge">
<title>VeranoCampamentoComponent&#45;&gt;CampingModule</title>
<path fill="none" stroke="black" d="M370,-122.03C370,-138.4 370,-160 370,-160 370,-160 497.44,-160 497.44,-160"/>
<polygon fill="black" stroke="black" points="497.44,-163.5 507.44,-160 497.44,-156.5 497.44,-163.5"/>
</g>
<!-- MaterialModule -->
<g id="node7" class="node">
<title>MaterialModule</title>
<polygon fill="#8dd3c7" stroke="black" points="247.47,-122 244.47,-126 223.47,-126 220.47,-122 140.53,-122 140.53,-86 247.47,-86 247.47,-122"/>
<text text-anchor="middle" x="194" y="-99.8" font-family="Times,serif" font-size="14.00">MaterialModule</text>
</g>
<!-- MaterialModule&#45;&gt;CampingModule -->
<g id="edge6" class="edge">
<title>MaterialModule&#45;&gt;CampingModule</title>
<path fill="none" stroke="black" d="M194,-122.11C194,-141.34 194,-169 194,-169 194,-169 497.36,-169 497.36,-169"/>
<polygon fill="black" stroke="black" points="497.36,-172.5 507.36,-169 497.36,-165.5 497.36,-172.5"/>
</g>
<!-- SharedModule -->
<g id="node8" class="node">
<title>SharedModule</title>
<polygon fill="#8dd3c7" stroke="black" points="122.42,-122 119.42,-126 98.42,-126 95.42,-122 23.58,-122 23.58,-86 122.42,-86 122.42,-122"/>
<text text-anchor="middle" x="73" y="-99.8" font-family="Times,serif" font-size="14.00">SharedModule</text>
</g>
<!-- SharedModule&#45;&gt;CampingModule -->
<g id="edge7" class="edge">
<title>SharedModule&#45;&gt;CampingModule</title>
<path fill="none" stroke="black" d="M73,-122.29C73,-144.21 73,-178 73,-178 73,-178 497.27,-178 497.27,-178"/>
<polygon fill="black" stroke="black" points="497.27,-181.5 507.27,-178 497.27,-174.5 497.27,-181.5"/>
</g>
</g>
</svg>
