<?xml version="1.0" encoding="UTF-8" standalone="no"?>
<!DOCTYPE svg PUBLIC "-//W3C//DTD SVG 1.1//EN"
 "http://www.w3.org/Graphics/SVG/1.1/DTD/svg11.dtd">
<!-- Generated by graphviz version 2.47.0 (20210316.0004)
 -->
<!-- Title: dependencies Pages: 1 -->
<svg width="504pt" height="211pt"
 viewBox="0.00 0.00 504.00 211.00" xmlns="http://www.w3.org/2000/svg" xmlns:xlink="http://www.w3.org/1999/xlink">
<g id="graph0" class="graph" transform="scale(1 1) rotate(0) translate(4 207)">
<title>dependencies</title>
<polygon fill="white" stroke="transparent" points="-4,4 -4,-207 500,-207 500,4 -4,4"/>
<text text-anchor="start" x="227.01" y="-42.4" font-family="Times-12" font-weight="bold" font-size="14.00">Legend</text>
<polygon fill="#ffffb3" stroke="transparent" points="14,-10 14,-30 34,-30 34,-10 14,-10"/>
<text text-anchor="start" x="37.63" y="-15.4" font-family="Times-12" font-size="14.00"> &#160;Declarations</text>
<polygon fill="#8dd3c7" stroke="transparent" points="127,-10 127,-30 147,-30 147,-10 127,-10"/>
<text text-anchor="start" x="150.73" y="-15.4" font-family="Times-12" font-size="14.00"> &#160;Module</text>
<polygon fill="#80b1d3" stroke="transparent" points="213,-10 213,-30 233,-30 233,-10 213,-10"/>
<text text-anchor="start" x="236.78" y="-15.4" font-family="Times-12" font-size="14.00"> &#160;Bootstrap</text>
<polygon fill="#fdb462" stroke="transparent" points="310,-10 310,-30 330,-30 330,-10 310,-10"/>
<text text-anchor="start" x="333.67" y="-15.4" font-family="Times-12" font-size="14.00"> &#160;Providers</text>
<polygon fill="#fb8072" stroke="transparent" points="406,-10 406,-30 426,-30 426,-10 406,-10"/>
<text text-anchor="start" x="429.73" y="-15.4" font-family="Times-12" font-size="14.00"> &#160;Exports</text>
<g id="clust1" class="cluster">
<title>cluster_PartidasPresupuestalesModule</title>
<polygon fill="none" stroke="black" stroke-dasharray="1,5" points="120.5,-70 120.5,-195 375.5,-195 375.5,-70 120.5,-70"/>
</g>
<g id="clust3" class="cluster">
<title>cluster_PartidasPresupuestalesModule_imports</title>
<polygon fill="none" stroke="black" points="128.5,-78 128.5,-130 367.5,-130 367.5,-78 128.5,-78"/>
</g>
<!-- MaterialModule -->
<g id="node1" class="node">
<title>MaterialModule</title>
<polygon fill="#8dd3c7" stroke="black" points="359.97,-122 356.97,-126 335.97,-126 332.97,-122 253.03,-122 253.03,-86 359.97,-86 359.97,-122"/>
<text text-anchor="middle" x="306.5" y="-99.8" font-family="Times,serif" font-size="14.00">MaterialModule</text>
</g>
<!-- PartidasPresupuestalesModule -->
<g id="node3" class="node">
<title>PartidasPresupuestalesModule</title>
<polygon fill="#8dd3c7" stroke="black" points="341.06,-187 338.06,-191 317.06,-191 314.06,-187 153.94,-187 153.94,-151 341.06,-151 341.06,-187"/>
<text text-anchor="middle" x="247.5" y="-164.8" font-family="Times,serif" font-size="14.00">PartidasPresupuestalesModule</text>
</g>
<!-- MaterialModule&#45;&gt;PartidasPresupuestalesModule -->
<g id="edge1" class="edge">
<title>MaterialModule&#45;&gt;PartidasPresupuestalesModule</title>
<path fill="none" stroke="black" d="M297.02,-122.11C297.02,-122.11 297.02,-140.99 297.02,-140.99"/>
<polygon fill="black" stroke="black" points="293.52,-140.99 297.02,-150.99 300.52,-140.99 293.52,-140.99"/>
</g>
<!-- SharedModule -->
<g id="node2" class="node">
<title>SharedModule</title>
<polygon fill="#8dd3c7" stroke="black" points="234.92,-122 231.92,-126 210.92,-126 207.92,-122 136.08,-122 136.08,-86 234.92,-86 234.92,-122"/>
<text text-anchor="middle" x="185.5" y="-99.8" font-family="Times,serif" font-size="14.00">SharedModule</text>
</g>
<!-- SharedModule&#45;&gt;PartidasPresupuestalesModule -->
<g id="edge2" class="edge">
<title>SharedModule&#45;&gt;PartidasPresupuestalesModule</title>
<path fill="none" stroke="black" d="M194.34,-122.11C194.34,-122.11 194.34,-140.99 194.34,-140.99"/>
<polygon fill="black" stroke="black" points="190.84,-140.99 194.34,-150.99 197.84,-140.99 190.84,-140.99"/>
</g>
</g>
</svg>
